# xmcd
#
# Track frame offsets:
#	150
#	1758
#	21967
#	44523
#	77766
#	101601
#	126512
#	150232
#	180713
#	198706
#	227574
#	253835
#	278405
#	300301
#
# Disc length: 4308 seconds
#
# Revision: 0
# Processed by: cddbd v1.4PL0 Copyright (c) Steve Scherf et al.
# Submitted via: AudioConverter v4.0 Copyright (c) Dennis Rebentrost
#
DISCID=ab10d20e
DTITLE=chemistry - The Way We Are
DYEAR=1900
DGENRE=R&B
TTITLE0=___y  1
TTITLE1=___y  2
TTITLE2=___y  3
TTITLE3=___y  4
TTITLE4=___y  5
TTITLE5=___y  6
TTITLE6=___y  7
TTITLE7=___y  8
TTITLE8=___y  9
TTITLE9=___y  10
TTITLE10=___y  11
TTITLE11=___y  12
TTITLE12=___y  13
TTITLE13=___y  14
EXTD=
EXTT0=
EXTT1=
EXTT2=
EXTT3=
EXTT4=
EXTT5=
EXTT6=
EXTT7=
EXTT8=
EXTT9=
EXTT10=
EXTT11=
EXTT12=
EXTT13=
PLAYORDER=
